<svg width="24" height="24" viewBox="0 0 24 24" fill="none" xmlns="http://www.w3.org/2000/svg" id='chatBot'>
	<rect width="24" height="24" rx="2" fill="#EB7092"/>
	<mask id="mask0" mask-type="alpha" maskUnits="userSpaceOnUse" x="0" y="0" width="24" height="24">
	<rect width="24" height="24" rx="2" fill="white"/>
	</mask>
<g mask="url(#mask0)">
</g>
<path d="M12 5.23071C7.90766 5.23071 4.64612 8.2461 4.64612 11.9692C4.64612 13.1384 4.98458 14.2461 5.53843 15.2307C5.63074 15.3846 5.66151 15.5692 5.59997 15.7538L4.64612 18.3692C4.55382 18.6153 4.79997 18.8307 5.04612 18.7692L7.69228 17.7538C7.84612 17.6923 8.03074 17.723 8.21535 17.8153C9.32305 18.4307 10.6461 18.7999 12.0615 18.7999C16.0923 18.7692 19.3846 15.7846 19.3846 12.0307C19.3538 8.2461 16.0615 5.23071 12 5.23071ZM8.30766 13.2307C7.63074 13.2307 7.07689 12.6769 7.07689 11.9999C7.07689 11.323 7.63074 10.7692 8.30766 10.7692C8.98458 10.7692 9.53843 11.323 9.53843 11.9999C9.53843 12.6769 8.98458 13.2307 8.30766 13.2307ZM12 13.2307C11.323 13.2307 10.7692 12.6769 10.7692 11.9999C10.7692 11.323 11.323 10.7692 12 10.7692C12.6769 10.7692 13.2307 11.323 13.2307 11.9999C13.2307 12.6769 12.6769 13.2307 12 13.2307ZM15.6923 13.2307C15.0154 13.2307 14.4615 12.6769 14.4615 11.9999C14.4615 11.323 15.0154 10.7692 15.6923 10.7692C16.3692 10.7692 16.923 11.323 16.923 11.9999C16.923 12.6769 16.3692 13.2307 15.6923 13.2307Z" fill="white"/>
</svg>