<svg width="24" height="24" viewBox="0 0 24 24" fill="none" xmlns="http://www.w3.org/2000/svg" id='helpCentre'>
    <rect width="24" height="24" rx="2" fill="#5EB4FF"/>
    <mask id="mask0" mask-type="alpha" maskUnits="userSpaceOnUse" x="0" y="0" width="24" height="24">
    <rect width="24" height="24" rx="2" fill="white"/>
    </mask>
    <g mask="url(#mask0)">
    </g>
    <path d="M11.9077 4.61545C7.81539 4.67699 4.58462 8.03084 4.61539 12.0924C4.67693 16.1847 8.03078 19.4155 12.0923 19.3847C16.1846 19.3231 19.4154 15.9693 19.3846 11.9078C19.3231 7.81545 15.9692 4.58468 11.9077 4.61545ZM11.9077 5.60007C13.0154 5.5693 14.0615 5.84622 14.9539 6.30776L13.9692 7.9693C13.3846 7.66161 12.7077 7.50776 12 7.50776C11.2923 7.50776 10.6154 7.66161 10.0308 7.9693L9.04616 6.30776C9.9077 5.87699 10.8615 5.60007 11.9077 5.60007ZM7.96924 13.9693L6.3077 14.9539C5.87693 14.0924 5.60001 13.1078 5.60001 12.0616C5.56924 10.9539 5.84616 9.90776 6.3077 9.01545L7.96924 10.0001C7.66154 10.5847 7.5077 11.2616 7.5077 11.9693C7.5077 12.677 7.66154 13.3847 7.96924 13.9693ZM12.0923 18.4001C10.9846 18.4308 9.93847 18.1539 9.04616 17.6924L10.0308 16.0308C10.6154 16.3385 11.2923 16.4924 12 16.4924C12.7077 16.4924 13.3846 16.3385 13.9692 16.0308L14.9539 17.6924C14.0923 18.1231 13.1385 18.4001 12.0923 18.4001ZM12 15.5385C10.0308 15.5385 8.46154 13.9385 8.46154 12.0001C8.46154 10.0308 10.0615 8.46161 12 8.46161C13.9692 8.46161 15.5385 10.0616 15.5385 12.0001C15.5385 13.9693 13.9692 15.5385 12 15.5385ZM16.0308 13.9693C16.3385 13.3847 16.4923 12.7078 16.4923 12.0001C16.4923 11.2924 16.3385 10.6155 16.0308 10.0308L17.6923 9.04622C18.1231 9.90776 18.4 10.8924 18.4 11.9385C18.4308 13.0462 18.1539 14.0924 17.6923 14.9847L16.0308 13.9693Z" fill="white"/>
</svg>  