<svg width="24" height="24" viewBox="0 0 24 24" fill="none" xmlns="http://www.w3.org/2000/svg" id='ivr'>
    <rect width="24" height="24" rx="2" fill="#4BCA81"/>
    <mask id="mask0" mask-type="alpha" maskUnits="userSpaceOnUse" x="0" y="0" width="24" height="24">
    <rect width="24" height="24" rx="2" fill="white"/>
    </mask>
    <g mask="url(#mask0)">
    </g>
    <path d="M18.9231 15.6615L17.0461 14.1539C16.6154 13.8154 16 13.7846 15.5692 14.1231L13.9692 15.2923C13.7846 15.4462 13.5077 15.4154 13.3231 15.2308L10.9231 13.0769L8.76922 10.6769C8.5846 10.4923 8.5846 10.2462 8.70768 10.0308L9.87691 8.43078C10.2154 8.00001 10.1846 7.38463 9.84614 6.95386L8.33845 5.07693C7.87691 4.52309 7.04614 4.46155 6.52306 4.98463L4.92306 6.58463C4.67691 6.83078 4.55383 7.16924 4.55383 7.5077C4.70768 10.6462 6.12306 13.6308 8.21537 15.7231C10.3077 17.8154 13.2923 19.2308 16.4308 19.3846C16.7692 19.4154 17.1077 19.2615 17.3538 19.0154L18.9538 17.4154C19.5384 16.9539 19.5077 16.0923 18.9231 15.6615Z" fill="white"/>
</svg> 