<svg width="24" height="24" viewBox="0 0 24 24" fill="none" xmlns="http://www.w3.org/2000/svg" id="teammate">
    <rect width="24" height="24" rx="2" fill="#FF9A3C"/>
    <mask id="mask0" mask-type="alpha" maskUnits="userSpaceOnUse" x="0" y="0" width="24" height="24">
    <rect width="24" height="24" rx="2" fill="white"/>
    </mask>
    <g mask="url(#mask0)">
    </g>
    <path d="M19.3846 17.2307V17.9077C19.3846 18.7077 18.7077 19.3846 17.9077 19.3846H6.09228C5.29228 19.3846 4.61536 18.7077 4.61536 17.9077V17.2307C4.61536 15.4461 6.70766 14.3384 8.67689 13.4769C8.73843 13.4461 8.79997 13.4154 8.86151 13.3846C9.01536 13.323 9.1692 13.323 9.32305 13.4154C10.123 13.9384 11.0154 14.2154 11.9692 14.2154C12.923 14.2154 13.8461 13.9077 14.6154 13.4154C14.7692 13.323 14.923 13.323 15.0769 13.3846C15.1384 13.4154 15.2 13.4461 15.2615 13.4769C17.2923 14.3384 19.3846 15.4154 19.3846 17.2307ZM12 4.61536C14.0307 4.61536 15.6615 6.43074 15.6615 8.67689C15.6615 10.923 14.0307 12.7384 12 12.7384C9.9692 12.7384 8.33843 10.923 8.33843 8.67689C8.33843 6.43074 9.9692 4.61536 12 4.61536Z" fill="white"/>
</svg>
